<svg width="23" height="24" viewBox="0 0 23 24" fill="none" xmlns="http://www.w3.org/2000/svg">
<path id="icon_voltar" d="M10.026 22.8997L0.401042 12.7484C0.255208 12.5946 0.151666 12.4279 0.0904164 12.2485C0.0301386 12.069 0 11.8768 0 11.6717C0 11.4666 0.0301386 11.2744 0.0904164 11.0949C0.151666 10.9155 0.255208 10.7489 0.401042 10.595L10.026 0.443678C10.2934 0.161696 10.6274 0.01404 11.0279 0.000709888C11.4294 -0.0115948 11.776 0.136061 12.0677 0.443678C12.3594 0.725661 12.5115 1.07788 12.5242 1.50034C12.5358 1.92383 12.3958 2.28938 12.1042 2.597L4.95833 10.1336H21.2552C21.6684 10.1336 22.015 10.2808 22.295 10.5751C22.574 10.8704 22.7135 11.2359 22.7135 11.6717C22.7135 12.1075 22.574 12.4725 22.295 12.7668C22.015 13.0621 21.6684 13.2098 21.2552 13.2098H4.95833L12.1042 20.7464C12.3715 21.0284 12.5115 21.3873 12.5242 21.8231C12.5358 22.2589 12.3958 22.6177 12.1042 22.8997C11.8368 23.2073 11.4965 23.3612 11.0833 23.3612C10.6701 23.3612 10.3177 23.2073 10.026 22.8997Z" fill="white"/>
</svg>
